# xmcd
#
# Track frame offsets:
#	150
#	10350
#	20033
#	26978
#	38933
#	48451
#	58809
#	70524
#	81347
#	92837
#	103390
#	115030
#
# Disc length: 1667 seconds
#
# Revision: 1
# Processed by: cddbd v1.5.2PL0 Copyright (c) Steve Scherf et al.
# Submitted via: audiograbber 1.83.01
#
DISCID=a606810c
DTITLE=Roy Drusky - Country Music All Around The World
DYEAR=1965
DGENRE=Country
TTITLE0=Country Mujsic All Around The World
TTITLE1=Danny Boy
TTITLE2=Blue Canadian Rockies
TTITLE3=China Doll
TTITLE4=Hawaiian Wedding Song (Ke-Kale-Nei-Au)
TTITLE5=Auf Wiederseh'n Sweetheart
TTITLE6=Faulein
TTITLE7=When It's Springtime In Alaska
TTITLE8=The French Song
TTITLE9=Geisha Girl
TTITLE10=Far Away Places
TTITLE11=Caribbean
EXTD=
EXTT0=
EXTT1=
EXTT2=
EXTT3=
EXTT4=
EXTT5=
EXTT6=
EXTT7=
EXTT8=
EXTT9=
EXTT10=
EXTT11=
PLAYORDER=
